<svg xmlns="http://www.w3.org/2000/svg" version="1.1" xmlns:xlink="http://www.w3.org/1999/xlink" width="200" height="200"><svg xmlns="http://www.w3.org/2000/svg" version="1.1" xmlns:xlink="http://www.w3.org/1999/xlink" viewBox="0 0 200 200"><rect width="200" height="200" fill="url('#gradient')"></rect><defs><linearGradient id="SvgjsLinearGradient1003" gradientTransform="rotate(45 0.5 0.5)"><stop offset="0%" stop-color="#bdddce"></stop><stop offset="100%" stop-color="#f7f6f5"></stop></linearGradient></defs><g><g fill="#101e2b" transform="matrix(6.035363457760314,0,0,6.035363457760314,7.871505014320249,142.58015479367)" stroke="#3a7092" stroke-width="0.2"><path d="M12.24-14.22L12.24-11.57L7.97-11.57L7.97 0L4.54 0L4.54-11.57L0.35-11.57L0.35-14.22L12.24-14.22ZM21.54 0L18.52-5.29L17.11-3.75L17.11 0L13.68 0L13.68-14.22L17.11-14.22L17.11-7.95L18.30-9.76L21.37-14.22L25.61-14.22L20.80-7.93L25.61 0L21.54 0ZM28.36-3.19L28.36-3.19Q29.14-3.19 29.66-2.73Q30.18-2.27 30.18-1.54Q30.18-0.82 29.66-0.36Q29.14 0.11 28.36 0.11L28.36 0.11Q27.57 0.11 27.06-0.36Q26.54-0.83 26.54-1.54Q26.54-2.26 27.06-2.72Q27.57-3.19 28.36-3.19Z"></path></g></g></svg><style>@media (prefers-color-scheme: light) { :root { filter: none; } }
@media (prefers-color-scheme: dark) { :root { filter: none; } }
</style></svg>